<svg width="84" height="84" viewBox="0 0 84 84" fill="none" xmlns="http://www.w3.org/2000/svg">
<g clip-path="url(#clip0_74_75)">
<path opacity="0.3" d="M42 14C26.565 14 14 26.565 14 42C14 57.435 26.565 70 42 70C57.435 70 70 57.435 70 42C70 26.565 57.435 14 42 14ZM35 59.5L21 45.5L25.935 40.565L35 49.595L58.065 26.53L63 31.5L35 59.5Z" fill="#4DB45E"/>
<path d="M42 7C22.68 7 7 22.68 7 42C7 61.32 22.68 77 42 77C61.32 77 77 61.32 77 42C77 22.68 61.32 7 42 7ZM42 70C26.565 70 14 57.435 14 42C14 26.565 26.565 14 42 14C57.435 14 70 26.565 70 42C70 57.435 57.435 70 42 70ZM58.065 26.53L35 49.595L25.935 40.565L21 45.5L35 59.5L63 31.5L58.065 26.53Z" fill="#4DB45E"/>
</g>
<defs>
<clipPath id="clip0_74_75">
<rect width="84" height="84" fill="white"/>
</clipPath>
</defs>
</svg>
