<svg width="512" height="512" viewBox="0 0 512 512" fill="none" xmlns="http://www.w3.org/2000/svg">
<g clip-path="url(#clip0_42_102)">
<path d="M256 512C397.385 512 512 397.385 512 256C512 114.615 397.385 0 256 0C114.615 0 0 114.615 0 256C0 397.385 114.615 512 256 512Z" fill="white"/>
<path d="M102.874 201.258C110.722 201.919 118.57 197.291 123.488 191.392C128.319 185.372 131.51 177.212 130.725 169C123.732 169.331 115.169 173.628 110.268 179.666C105.734 184.816 101.88 193.306 102.874 201.258ZM83.4459 308.992C92.131 308.661 95.5492 303.302 106.013 303.302C116.547 303.302 119.616 308.992 128.772 308.87C138.259 308.678 144.206 300.275 150.014 291.645C156.606 281.849 159.362 272.367 159.501 271.845C159.309 271.654 141.189 264.624 140.98 243.433C140.788 225.686 155.316 217.265 155.943 216.743C147.764 204.424 135.016 203.102 130.568 202.771L130.603 202.789C119.215 202.11 109.484 209.331 104.112 209.331C98.6186 209.331 90.387 203.102 81.3532 203.293C69.6685 203.502 58.8034 210.201 52.8565 220.849C40.5614 242.232 49.6475 273.828 61.5415 291.245C67.3664 299.84 74.29 309.322 83.4459 308.992ZM295.514 241.849H313.373C314.873 233.898 322.128 228.661 332.086 228.661C344.189 228.661 350.991 234.35 350.991 244.877V252.028L326.278 253.559C303.327 254.951 290.893 264.485 290.893 281.032C290.963 297.717 303.763 308.835 322.145 308.852C334.58 308.852 346.09 302.502 351.304 292.376H351.688V307.878H370V243.641C370 225.042 355.281 212.984 332.661 212.984C311.664 212.984 296.125 225.146 295.514 241.849ZM351.06 272.924C351.06 284.981 340.91 293.576 327.517 293.576C316.983 293.576 310.251 288.409 310.251 280.597C310.251 272.437 316.721 267.756 329.086 267.025L351.06 265.634V272.924ZM196.247 178.796V307.861H216.059V263.754H243.457C268.5 263.754 286.027 246.338 286.027 221.179C286.027 196.02 268.779 178.796 244.102 178.796H196.247ZM265.902 221.249C265.902 237.534 256.1 246.947 238.817 246.947H216.059V195.69H238.887C256.083 195.69 265.902 204.946 265.902 221.249Z" fill="black"/>
<path d="M422.061 290.354L398.719 214H378L411.57 308.153L409.735 313.853C406.71 323.528 401.797 327.328 393.019 327.328C391.446 327.328 388.438 327.137 387.179 326.997V342.529C388.368 342.808 393.299 343 394.803 343L394.785 342.965C414.123 342.965 423.233 335.469 431.188 312.842L466 214H445.805L422.463 290.354H422.061Z" fill="black"/>
</g>
<defs>
<clipPath id="clip0_42_102">
<rect width="512" height="512" fill="white"/>
</clipPath>
</defs>
</svg>
