<svg width="512" height="512" viewBox="0 0 512 512" fill="none" xmlns="http://www.w3.org/2000/svg">
<g clip-path="url(#clip0_42_33)">
<path d="M256 512C397.385 512 512 397.385 512 256C512 114.615 397.385 0 256 0C114.615 0 0 114.615 0 256C0 397.385 114.615 512 256 512Z" fill="white"/>
<path d="M409.375 257.234C409.375 309.745 366.886 352.314 314.475 352.314C262.063 352.314 219.574 309.745 219.574 257.234C219.574 204.723 262.063 162.154 314.475 162.154C366.886 162.154 409.375 204.723 409.375 257.234Z" fill="#F79F1A"/>
<path d="M292.301 257.234C292.301 309.745 249.813 352.314 197.401 352.314C144.989 352.314 102.501 309.745 102.501 257.234C102.501 204.723 144.989 162.154 197.401 162.154C249.813 162.154 292.301 204.723 292.301 257.234Z" fill="#EA001B"/>
<path d="M255.938 182.386C233.795 199.792 219.582 226.841 219.582 257.225C219.582 287.61 233.795 314.678 255.938 332.084C278.08 314.678 292.294 287.61 292.294 257.225C292.294 226.841 278.08 199.792 255.938 182.386Z" fill="#FF5F01"/>
</g>
<defs>
<clipPath id="clip0_42_33">
<rect width="512" height="512" fill="white"/>
</clipPath>
</defs>
</svg>
