<svg width="512" height="512" viewBox="0 0 512 512" fill="none" xmlns="http://www.w3.org/2000/svg">
<g clip-path="url(#clip0_42_54)">
<path d="M256 512C397.385 512 512 397.385 512 256C512 114.615 397.385 0 256 0C114.615 0 0 114.615 0 256C0 397.385 114.615 512 256 512Z" fill="white"/>
<g clip-path="url(#clip1_42_54)">
<path d="M161.293 197.026V197.077C161.242 197.077 145.156 197.026 140.866 212.534C136.934 226.753 125.852 265.995 125.546 267.077H122.482C122.482 267.077 111.145 226.96 107.162 212.482C102.872 196.974 86.7346 197.026 86.7346 197.026H50V314.974H86.7516V244.923H89.8156L111.264 314.974H136.781L158.229 244.974H161.293V314.974H198.045V197.026H161.293ZM295.55 197.026C295.55 197.026 284.774 198.005 279.719 209.391L253.691 267.077H250.627V197.026H213.876V314.974H248.585C248.585 314.974 259.87 313.944 264.927 302.609L290.443 244.923H293.507V314.974H330.259V197.026H295.55ZM346.6 250.59V314.974H383.352V277.381H423.168C440.531 277.381 455.221 266.201 460.685 250.608H346.6V250.59Z" fill="#4DB45E"/>
<path d="M423.184 197.026H341.442C345.528 219.489 362.226 237.504 383.811 243.378C388.822 244.747 393.991 245.44 399.182 245.439H462.182C462.744 242.76 463 240.029 463 237.196C463 215.007 445.178 197.026 423.184 197.026Z" fill="url(#paint0_linear_42_54)"/>
</g>
</g>
<defs>
<linearGradient id="paint0_linear_42_54" x1="341.442" y1="221.232" x2="463" y2="221.232" gradientUnits="userSpaceOnUse">
<stop offset="0.3" stop-color="#00B4E6"/>
<stop offset="1" stop-color="#088CCB"/>
</linearGradient>
<clipPath id="clip0_42_54">
<rect width="512" height="512" fill="white"/>
</clipPath>
<clipPath id="clip1_42_54">
<rect width="413" height="118" fill="white" transform="translate(50 197)"/>
</clipPath>
</defs>
</svg>
