<svg width="512" height="512" viewBox="0 0 512 512" fill="none" xmlns="http://www.w3.org/2000/svg">
<g clip-path="url(#clip0_42_117)">
<path d="M256 512C397.385 512 512 397.385 512 256C512 114.615 397.385 0 256 0C114.615 0 0 114.615 0 256C0 397.385 114.615 512 256 512Z" fill="white"/>
<path d="M257.495 450C211.592 450 156.467 443.387 119.707 416.855C84.3075 391.312 65.603 345.882 62.5396 277.988C59.3466 207.322 70.3359 153.95 95.1996 119.314C108.766 100.416 127.39 86.4123 152.156 76.4608C173.211 68.0166 199.355 63.3001 234.414 61.6307C306.93 58.1298 359.283 69.1835 394.439 95.2779C429.417 121.243 448.332 168.261 450.666 235.053C453.098 306.432 442.254 357.859 417.536 392.301C392.284 427.471 345.587 446.726 278.744 449.546C271.952 449.838 264.853 450 257.495 450ZM78.7156 277.258C81.5683 339.885 98.0685 381.247 129.205 403.727C168.056 431.766 231.61 435.332 278.031 433.355C339.671 430.761 382.17 413.776 404.359 382.851C426.937 351.441 436.76 303.288 434.442 235.621C432.302 174.015 415.591 131.178 384.779 108.309C352.735 84.5484 303.915 74.6455 235.192 77.8222C202.435 79.3944 177.23 83.8677 158.186 91.5015C136.369 100.254 120.08 112.442 108.361 128.763C85.6852 160.352 75.7171 210.32 78.7156 277.258Z" fill="black"/>
<path d="M288.878 287.718C286.731 287.718 284.673 286.867 283.155 285.354C281.637 283.84 280.784 281.787 280.784 279.647V247.364C280.784 234.016 269.89 223.153 256.502 223.153C243.115 223.153 232.221 234.016 232.221 247.364C232.221 260.713 243.115 271.576 256.502 271.576C258.649 271.576 260.708 272.427 262.226 273.94C263.744 275.454 264.596 277.506 264.596 279.647C264.596 281.787 263.744 283.84 262.226 285.354C260.708 286.867 258.649 287.718 256.502 287.718C234.179 287.718 216.033 269.623 216.033 247.364C216.033 225.106 234.179 207.011 256.502 207.011C278.825 207.011 296.972 225.106 296.972 247.364V279.647C296.972 281.787 296.119 283.84 294.601 285.354C293.083 286.867 291.025 287.718 288.878 287.718ZM135.094 320C132.947 320 130.889 319.15 129.371 317.636C127.853 316.123 127 314.07 127 311.929V215.082C127 212.942 127.853 210.889 129.371 209.375C130.889 207.862 132.947 207.011 135.094 207.011H167.469C189.792 207.011 207.939 225.106 207.939 247.364C207.939 269.623 189.792 287.718 167.469 287.718C165.323 287.718 163.264 286.867 161.746 285.354C160.228 283.84 159.376 281.787 159.376 279.647C159.376 277.506 160.228 275.454 161.746 273.94C163.264 272.427 165.323 271.576 167.469 271.576C180.857 271.576 191.751 260.713 191.751 247.364C191.751 234.016 180.857 223.153 167.469 223.153H143.188V311.929C143.188 314.07 142.335 316.123 140.817 317.636C139.299 319.15 137.241 320 135.094 320ZM333.572 263.845C332.071 263.841 330.601 263.423 329.323 262.636C328.046 261.85 327.012 260.726 326.336 259.39L305.924 218.698C304.964 216.782 304.807 214.565 305.487 212.533C306.167 210.502 307.629 208.824 309.55 207.867C311.471 206.91 313.695 206.754 315.732 207.432C317.769 208.11 319.452 209.567 320.412 211.483L340.825 252.175C341.44 253.406 341.729 254.773 341.666 256.147C341.602 257.521 341.187 258.856 340.46 260.025C339.734 261.194 338.72 262.159 337.514 262.827C336.309 263.496 334.952 263.846 333.572 263.845ZM329.347 320C327.966 320.003 326.607 319.653 325.399 318.983C324.191 318.314 323.176 317.348 322.449 316.176C321.722 315.005 321.308 313.667 321.246 312.291C321.184 310.915 321.476 309.545 322.095 308.314L370.659 211.466C371.618 209.551 373.302 208.094 375.339 207.415C377.376 206.737 379.599 206.894 381.521 207.851C383.442 208.808 384.903 210.486 385.583 212.517C386.263 214.549 386.106 216.766 385.147 218.682L336.583 315.529C335.913 316.871 334.881 318 333.603 318.79C332.324 319.579 330.851 319.998 329.347 320Z" fill="black"/>
</g>
<defs>
<clipPath id="clip0_42_117">
<rect width="512" height="512" fill="white"/>
</clipPath>
</defs>
</svg>
