<svg width="512" height="512" viewBox="0 0 512 512" fill="none" xmlns="http://www.w3.org/2000/svg">
<rect width="512" height="512" rx="256" fill="white"/>
<path fill-rule="evenodd" clip-rule="evenodd" d="M204.917 199.049L186.29 313.524H216.092L234.721 199.049H204.917ZM161.216 199.049L132.802 277.784L129.441 260.829L129.443 260.835L128.703 257.035C125.264 249.624 117.3 235.538 102.261 223.518C97.8146 219.964 93.3327 216.932 89 214.342L114.824 313.524H145.875L193.292 199.049H161.216ZM277.527 230.829C277.527 217.887 306.552 219.55 319.305 226.578L323.558 201.992C323.558 201.992 310.433 197 296.752 197C281.961 197 246.841 203.468 246.841 234.896C246.841 264.474 288.062 264.841 288.062 280.37C288.062 295.899 251.091 293.124 238.89 283.328L234.455 309.026C234.455 309.026 247.762 315.494 268.099 315.494C288.433 315.494 319.119 304.959 319.119 276.303C319.119 246.541 277.527 243.769 277.527 230.829ZM399.14 199.049H375.179C364.115 199.049 361.42 207.58 361.42 207.58L316.976 313.524H348.039L354.253 296.521H392.14L395.635 313.524H423L399.14 199.049ZM362.841 273.03L378.502 230.19L387.312 273.03H362.841Z" fill="#005BAC"/>
<path fill-rule="evenodd" clip-rule="evenodd" d="M119.038 206.053C119.038 206.053 117.957 197 106.417 197H64.4911L64 198.701C64 198.701 84.1529 202.81 103.487 218.201C121.964 232.912 127.991 251.249 127.991 251.249L119.038 206.053Z" fill="#F6AC1D"/>
</svg>
