<svg width="512" height="512" viewBox="0 0 512 512" fill="none" xmlns="http://www.w3.org/2000/svg">
<g clip-path="url(#clip0_42_97)">
<path d="M256 512C397.385 512 512 397.385 512 256C512 114.615 397.385 0 256 0C114.615 0 0 114.615 0 256C0 397.385 114.615 512 256 512Z" fill="white"/>
<path fill-rule="evenodd" clip-rule="evenodd" d="M236.555 130.657C245.305 121.833 259.551 121.774 268.374 130.524C273.231 135.34 275.432 141.822 274.971 148.147C274.99 148.53 275 148.915 275 149.303V219.068L362.554 130.779C371.304 121.956 385.551 121.896 394.374 130.646C403.197 139.396 403.257 153.642 394.507 162.466L270.796 287.214C265.934 292.116 259.377 294.313 252.995 293.797C252.83 293.801 252.665 293.803 252.5 293.803C240.074 293.803 230 283.729 230 271.303V201.173L144.796 287.092C141.349 290.568 137.049 292.684 132.564 293.437C131.246 293.677 129.888 293.803 128.5 293.803C116.074 293.803 106 283.729 106 271.303V149.303C106 136.876 116.074 126.803 128.5 126.803C140.926 126.803 151 136.876 151 149.303V216.929L236.555 130.657Z" fill="black"/>
<path d="M118.818 373L108.182 338.091H113.818L121.364 364.818H121.727L129.182 338.091H134.909L142.273 364.727H142.636L150.182 338.091H155.818L145.182 373H139.909L132.273 346.182H131.727L124.091 373H118.818ZM173.182 373.818C170.97 373.818 168.962 373.402 167.159 372.568C165.356 371.72 163.924 370.5 162.864 368.909C161.803 367.303 161.273 365.364 161.273 363.091C161.273 361.091 161.667 359.47 162.455 358.227C163.242 356.97 164.295 355.985 165.614 355.273C166.932 354.561 168.386 354.03 169.977 353.682C171.583 353.318 173.197 353.03 174.818 352.818C176.939 352.545 178.659 352.341 179.977 352.205C181.311 352.053 182.28 351.803 182.886 351.455C183.508 351.106 183.818 350.5 183.818 349.636V349.455C183.818 347.212 183.205 345.47 181.977 344.227C180.765 342.985 178.924 342.364 176.455 342.364C173.894 342.364 171.886 342.924 170.432 344.045C168.977 345.167 167.955 346.364 167.364 347.636L162.273 345.818C163.182 343.697 164.394 342.045 165.909 340.864C167.439 339.667 169.106 338.833 170.909 338.364C172.727 337.879 174.515 337.636 176.273 337.636C177.394 337.636 178.682 337.773 180.136 338.045C181.606 338.303 183.023 338.841 184.386 339.659C185.765 340.477 186.909 341.712 187.818 343.364C188.727 345.015 189.182 347.227 189.182 350V373H183.818V368.273H183.545C183.182 369.03 182.576 369.841 181.727 370.705C180.879 371.568 179.75 372.303 178.341 372.909C176.932 373.515 175.212 373.818 173.182 373.818ZM174 369C176.121 369 177.909 368.583 179.364 367.75C180.833 366.917 181.939 365.841 182.682 364.523C183.439 363.205 183.818 361.818 183.818 360.364V355.455C183.591 355.727 183.091 355.977 182.318 356.205C181.561 356.417 180.682 356.606 179.682 356.773C178.697 356.924 177.735 357.061 176.795 357.182C175.871 357.288 175.121 357.379 174.545 357.455C173.152 357.636 171.848 357.932 170.636 358.341C169.439 358.735 168.47 359.333 167.727 360.136C167 360.924 166.636 362 166.636 363.364C166.636 365.227 167.326 366.636 168.705 367.591C170.098 368.53 171.864 369 174 369ZM204.335 326.455V373H198.972V326.455H204.335ZM219.523 326.455V373H214.159V326.455H219.523ZM243.983 373.727C240.619 373.727 237.718 372.985 235.278 371.5C232.854 370 230.983 367.909 229.665 365.227C228.362 362.53 227.71 359.394 227.71 355.818C227.71 352.242 228.362 349.091 229.665 346.364C230.983 343.621 232.816 341.485 235.165 339.955C237.528 338.409 240.286 337.636 243.438 337.636C245.256 337.636 247.051 337.939 248.824 338.545C250.597 339.152 252.21 340.136 253.665 341.5C255.119 342.848 256.278 344.636 257.142 346.864C258.006 349.091 258.438 351.833 258.438 355.091V357.364H231.528V352.727H252.983C252.983 350.758 252.589 349 251.801 347.455C251.028 345.909 249.922 344.689 248.483 343.795C247.059 342.902 245.377 342.455 243.438 342.455C241.301 342.455 239.453 342.985 237.892 344.045C236.347 345.091 235.157 346.455 234.324 348.136C233.491 349.818 233.074 351.621 233.074 353.545V356.636C233.074 359.273 233.528 361.508 234.438 363.341C235.362 365.159 236.642 366.545 238.278 367.5C239.915 368.439 241.816 368.909 243.983 368.909C245.392 368.909 246.665 368.712 247.801 368.318C248.953 367.909 249.945 367.303 250.778 366.5C251.612 365.682 252.256 364.667 252.71 363.455L257.892 364.909C257.347 366.667 256.43 368.212 255.142 369.545C253.854 370.864 252.263 371.894 250.369 372.636C248.475 373.364 246.347 373.727 243.983 373.727ZM281.778 338.091V342.636H263.688V338.091H281.778ZM268.96 329.727H274.324V363C274.324 364.515 274.544 365.652 274.983 366.409C275.438 367.152 276.013 367.652 276.71 367.909C277.422 368.152 278.172 368.273 278.96 368.273C279.551 368.273 280.036 368.242 280.415 368.182C280.794 368.106 281.097 368.045 281.324 368L282.415 372.818C282.051 372.955 281.544 373.091 280.892 373.227C280.241 373.379 279.415 373.455 278.415 373.455C276.9 373.455 275.415 373.129 273.96 372.477C272.521 371.826 271.324 370.833 270.369 369.5C269.43 368.167 268.96 366.485 268.96 364.455V329.727Z" fill="black"/>
<path d="M312.091 373.727C308.939 373.727 306.174 372.977 303.795 371.477C301.432 369.977 299.583 367.879 298.25 365.182C296.932 362.485 296.273 359.333 296.273 355.727C296.273 352.091 296.932 348.917 298.25 346.205C299.583 343.492 301.432 341.386 303.795 339.886C306.174 338.386 308.939 337.636 312.091 337.636C315.242 337.636 318 338.386 320.364 339.886C322.742 341.386 324.591 343.492 325.909 346.205C327.242 348.917 327.909 352.091 327.909 355.727C327.909 359.333 327.242 362.485 325.909 365.182C324.591 367.879 322.742 369.977 320.364 371.477C318 372.977 315.242 373.727 312.091 373.727ZM312.091 368.909C314.485 368.909 316.455 368.295 318 367.068C319.545 365.841 320.689 364.227 321.432 362.227C322.174 360.227 322.545 358.061 322.545 355.727C322.545 353.394 322.174 351.22 321.432 349.205C320.689 347.189 319.545 345.561 318 344.318C316.455 343.076 314.485 342.455 312.091 342.455C309.697 342.455 307.727 343.076 306.182 344.318C304.636 345.561 303.492 347.189 302.75 349.205C302.008 351.22 301.636 353.394 301.636 355.727C301.636 358.061 302.008 360.227 302.75 362.227C303.492 364.227 304.636 365.841 306.182 367.068C307.727 368.295 309.697 368.909 312.091 368.909ZM341.46 352V373H336.097V338.091H341.278V343.545H341.733C342.551 341.773 343.794 340.348 345.46 339.273C347.127 338.182 349.278 337.636 351.915 337.636C354.278 337.636 356.347 338.121 358.119 339.091C359.892 340.045 361.271 341.5 362.256 343.455C363.241 345.394 363.733 347.848 363.733 350.818V373H358.369V351.182C358.369 348.439 357.657 346.303 356.233 344.773C354.809 343.227 352.854 342.455 350.369 342.455C348.657 342.455 347.127 342.826 345.778 343.568C344.445 344.311 343.392 345.394 342.619 346.818C341.847 348.242 341.46 349.97 341.46 352ZM388.17 373.727C384.807 373.727 381.905 372.985 379.466 371.5C377.042 370 375.17 367.909 373.852 365.227C372.549 362.53 371.898 359.394 371.898 355.818C371.898 352.242 372.549 349.091 373.852 346.364C375.17 343.621 377.004 341.485 379.352 339.955C381.716 338.409 384.473 337.636 387.625 337.636C389.443 337.636 391.239 337.939 393.011 338.545C394.784 339.152 396.398 340.136 397.852 341.5C399.307 342.848 400.466 344.636 401.33 346.864C402.193 349.091 402.625 351.833 402.625 355.091V357.364H375.716V352.727H397.17C397.17 350.758 396.777 349 395.989 347.455C395.216 345.909 394.11 344.689 392.67 343.795C391.246 342.902 389.564 342.455 387.625 342.455C385.489 342.455 383.64 342.985 382.08 344.045C380.534 345.091 379.345 346.455 378.511 348.136C377.678 349.818 377.261 351.621 377.261 353.545V356.636C377.261 359.273 377.716 361.508 378.625 363.341C379.549 365.159 380.83 366.545 382.466 367.5C384.102 368.439 386.004 368.909 388.17 368.909C389.58 368.909 390.852 368.712 391.989 368.318C393.14 367.909 394.133 367.303 394.966 366.5C395.799 365.682 396.443 364.667 396.898 363.455L402.08 364.909C401.534 366.667 400.617 368.212 399.33 369.545C398.042 370.864 396.451 371.894 394.557 372.636C392.663 373.364 390.534 373.727 388.17 373.727Z" fill="#B61234"/>
<path fill-rule="evenodd" clip-rule="evenodd" d="M385.787 124.83C378.186 122.708 369.693 124.656 363.741 130.657L312.524 182.304C303.774 191.127 303.833 205.373 312.657 214.123C321.48 222.873 335.726 222.814 344.476 213.991L360.68 197.65V269.18C360.68 281.607 370.754 291.68 383.18 291.68C395.607 291.68 405.68 281.607 405.68 269.18V147.18C405.68 135.636 396.985 126.122 385.787 124.83Z" fill="#B61234"/>
</g>
<defs>
<clipPath id="clip0_42_97">
<rect width="512" height="512" fill="white"/>
</clipPath>
</defs>
</svg>
