<svg width="24" height="24" viewBox="0 0 24 24" fill="none" xmlns="http://www.w3.org/2000/svg">
<g clip-path="url(#clip0_31_736)">
<rect x="7.78003" y="4" width="18" height="10" rx="5" transform="rotate(35.3106 7.78003 4)" fill="#F5CBCC"/>
<path d="M13.5 23C16.54 23 19 20.54 19 17.5V6H17.5V17.5C17.5 19.71 15.71 21.5 13.5 21.5C11.29 21.5 9.5 19.71 9.5 17.5V5C9.5 3.62 10.62 2.5 12 2.5C13.38 2.5 14.5 3.62 14.5 5V15.5C14.5 16.05 14.05 16.5 13.5 16.5C12.95 16.5 12.5 16.05 12.5 15.5V6H11V15.5C11 16.88 12.12 18 13.5 18C14.88 18 16 16.88 16 15.5V5C16 2.79 14.21 1 12 1C9.79 1 8 2.79 8 5V17.5C8 20.54 10.46 23 13.5 23Z" fill="#DE5256"/>
</g>
<defs>
<clipPath id="clip0_31_736">
<rect width="24" height="24" fill="white"/>
</clipPath>
</defs>
</svg>
