<svg width="24" height="24" viewBox="0 0 24 24" fill="none" xmlns="http://www.w3.org/2000/svg">
<g clip-path="url(#clip0_31_753)">
<path opacity="0.3" d="M9 17.6667C9 16.75 8.1 16 7 16C5.9 16 5 16.75 5 17.6667C5 18.9 4.62 20 4 20.9167C4.34 20.9667 4.66 21 5 21C7.2 21 9 19.5 9 17.6667Z" fill="#DE5256"/>
<path d="M12.3142 15.6667L23.6306 4.71556C24.1231 4.23889 24.1231 3.46889 23.6306 2.99222L21.9382 1.35444C21.6856 1.11 21.3698 1 21.0541 1C20.7383 1 20.4099 1.12222 20.1573 1.35444L8.84094 12.3056L12.3142 15.6667ZM5.05197 23C7.84318 23 10.1039 20.8122 10.1039 18.1111C10.1039 16.0822 8.41153 14.4444 6.31496 14.4444C4.21839 14.4444 2.52598 16.0822 2.52598 18.1111C2.52598 19.7122 1.06091 20.5556 0 20.5556C1.16195 22.0467 3.14485 23 5.05197 23ZM5.05197 18.1111C5.05197 17.4389 5.62031 16.8889 6.31496 16.8889C7.0096 16.8889 7.57795 17.4389 7.57795 18.1111C7.57795 19.4556 6.44126 20.5556 5.05197 20.5556C4.83726 20.5556 4.63518 20.5311 4.42047 20.4944C4.812 19.8222 5.05197 19.0156 5.05197 18.1111Z" fill="#DE5256"/>
</g>
<defs>
<clipPath id="clip0_31_753">
<rect width="24" height="24" fill="white"/>
</clipPath>
</defs>
</svg>
