<svg width="24" height="24" viewBox="0 0 24 24" fill="none" xmlns="http://www.w3.org/2000/svg">
<g clip-path="url(#clip0_31_721)">
<path d="M19 6H9L13 19L11 21H19V6Z" fill="#F5CBCC"/>
<path d="M18 5H8.88L8 2H2C0.9 2 0 2.9 0 4V17C0 18.1 0.9 19 2 19H9L10 22H18C19.1 22 20 21.1 20 20V7C20 5.9 19.1 5 18 5ZM5.17 14.59C2.92 14.59 1.08 12.76 1.08 10.5C1.08 8.24 2.91 6.41 5.17 6.41C6.21 6.41 7.16 6.78 7.91 7.48L7.98 7.54L6.75 8.72L6.69 8.67C6.4 8.4 5.91 8.08 5.17 8.08C3.86 8.08 2.79 9.17 2.79 10.5C2.79 11.83 3.86 12.92 5.17 12.92C6.54 12.92 7.13 12.05 7.29 11.46H5.08V9.91H9.03L9.04 9.98C9.08 10.19 9.09 10.38 9.09 10.59C9.09 12.94 7.48 14.59 5.17 14.59V14.59ZM10.67 11.08H14.66C14.66 11.08 14.32 12.39 13.1 13.82C12.58 13.2 12.21 12.59 11.97 12.12H10.98L10.67 11.08V11.08ZM12.39 14.58L11.85 15.11L11.2 12.88C11.53 13.48 11.94 14.06 12.39 14.58V14.58ZM19 20C19 20.55 18.55 21 18 21H11L13 19L12.19 16.23L13.11 15.31L15.79 18L16.52 17.27L13.81 14.59C14.71 13.56 15.41 12.34 15.73 11.08H17V10.04H13.36V9H12.32V10.04H10.36L9.18 6H18C18.55 6 19 6.45 19 7V20Z" fill="#DE5256"/>
</g>
<defs>
<clipPath id="clip0_31_721">
<rect width="24" height="24" fill="white"/>
</clipPath>
</defs>
</svg>
