<svg width="276" height="63" viewBox="0 0 276 63" fill="none" xmlns="http://www.w3.org/2000/svg">
<path d="M21.9716 26.1307C21.8352 24.7557 21.25 23.6875 20.2159 22.9261C19.1818 22.1648 17.7784 21.7841 16.0057 21.7841C14.8011 21.7841 13.7841 21.9545 12.9545 22.2955C12.125 22.625 11.4886 23.0852 11.0455 23.6761C10.6136 24.267 10.3977 24.9375 10.3977 25.6875C10.375 26.3125 10.5057 26.858 10.7898 27.3239C11.0852 27.7898 11.4886 28.1932 12 28.5341C12.5114 28.8636 13.1023 29.1534 13.7727 29.4034C14.4432 29.642 15.1591 29.8466 15.9205 30.017L19.0568 30.767C20.5795 31.108 21.9773 31.5625 23.25 32.1307C24.5227 32.6989 25.625 33.3977 26.5568 34.2273C27.4886 35.0568 28.2102 36.0341 28.7216 37.1591C29.2443 38.2841 29.5114 39.5739 29.5227 41.0284C29.5114 43.1648 28.9659 45.017 27.8864 46.5852C26.8182 48.142 25.2727 49.3523 23.25 50.2159C21.2386 51.0682 18.8125 51.4943 15.9716 51.4943C13.1534 51.4943 10.6989 51.0625 8.60795 50.1989C6.52841 49.3352 4.90341 48.0568 3.73295 46.3636C2.57386 44.6591 1.96591 42.5511 1.90909 40.0398H9.05114C9.13068 41.2102 9.46591 42.1875 10.0568 42.9716C10.6591 43.7443 11.4602 44.3295 12.4602 44.7273C13.4716 45.1136 14.6136 45.3068 15.8864 45.3068C17.1364 45.3068 18.2216 45.125 19.142 44.7614C20.0739 44.3977 20.7955 43.892 21.3068 43.2443C21.8182 42.5966 22.0739 41.8523 22.0739 41.0114C22.0739 40.2273 21.8409 39.5682 21.375 39.0341C20.9205 38.5 20.25 38.0455 19.3636 37.6705C18.4886 37.2955 17.4148 36.9545 16.142 36.6477L12.3409 35.6932C9.39773 34.9773 7.07386 33.858 5.36932 32.3352C3.66477 30.8125 2.81818 28.7614 2.82955 26.1818C2.81818 24.0682 3.38068 22.2216 4.51705 20.642C5.66477 19.0625 7.23864 17.8295 9.23864 16.9432C11.2386 16.0568 13.5114 15.6136 16.0568 15.6136C18.6477 15.6136 20.9091 16.0568 22.8409 16.9432C24.7841 17.8295 26.2955 19.0625 27.375 20.642C28.4545 22.2216 29.0114 24.0511 29.0455 26.1307H21.9716ZM33.5577 22.1761V16.0909H62.2281V22.1761H51.5406V51H44.2452V22.1761H33.5577ZM88.9122 16.0909H96.2929V38.7614C96.2929 41.3068 95.6849 43.5341 94.469 45.4432C93.2645 47.3523 91.577 48.8409 89.4065 49.9091C87.2361 50.9659 84.7077 51.4943 81.8213 51.4943C78.9236 51.4943 76.3895 50.9659 74.219 49.9091C72.0486 48.8409 70.3611 47.3523 69.1565 45.4432C67.952 43.5341 67.3497 41.3068 67.3497 38.7614V16.0909H74.7304V38.1307C74.7304 39.4602 75.0202 40.642 75.5997 41.6761C76.1906 42.7102 77.0202 43.5227 78.0884 44.1136C79.1565 44.7045 80.4009 45 81.8213 45C83.2531 45 84.4974 44.7045 85.5543 44.1136C86.6224 43.5227 87.4463 42.7102 88.0259 41.6761C88.6168 40.642 88.9122 39.4602 88.9122 38.1307V16.0909ZM115.14 51H102.765V16.0909H115.243C118.754 16.0909 121.777 16.7898 124.311 18.1875C126.845 19.5739 128.794 21.5682 130.157 24.1705C131.532 26.7727 132.22 29.8864 132.22 33.5114C132.22 37.1477 131.532 40.2727 130.157 42.8864C128.794 45.5 126.834 47.5057 124.277 48.9034C121.731 50.3011 118.686 51 115.14 51ZM110.146 44.6761H114.834C117.015 44.6761 118.851 44.2898 120.339 43.517C121.839 42.733 122.964 41.5227 123.714 39.8864C124.476 38.2386 124.856 36.1136 124.856 33.5114C124.856 30.9318 124.476 28.8239 123.714 27.1875C122.964 25.5511 121.845 24.3466 120.356 23.5739C118.868 22.8011 117.032 22.4148 114.851 22.4148H110.146V44.6761ZM133.932 16.0909H142.199L150.16 31.125H150.501L158.461 16.0909H166.728L153.995 38.6591V51H146.665V38.6591L133.932 16.0909Z" fill="#312424"/>
<path fill-rule="evenodd" clip-rule="evenodd" d="M176 9.99999C176 4.47715 180.477 0 186 0H266C271.523 0 276 4.47715 276 10V52.963C276 58.4858 271.523 62.963 266 62.963H186C180.477 62.963 176 58.4858 176 52.963V9.99999ZM257.676 15.872V44.9629H253.642L238.855 23.6277H238.585V44.9629H234.196V15.872H238.259L253.06 37.2356H253.33V15.872H257.676ZM206.189 16.2358C206.189 15.0419 207.157 14.0741 208.351 14.0741C209.545 14.0741 210.512 15.0419 210.512 16.2358V17.7415C210.518 17.7665 210.518 17.7924 210.512 17.8174V34.195C210.512 35.3889 209.545 36.3567 208.351 36.3567C207.157 36.3567 206.189 35.3889 206.189 34.195V16.2358ZM191.556 30.0376C191.556 24.981 193.813 20.4515 197.374 17.4016C198.212 16.6843 199.455 16.8683 200.165 17.712C201.011 18.7178 200.755 20.2347 199.802 21.1405C197.46 23.3672 196 26.5131 196 30C196 36.7502 201.472 42.2223 208.222 42.2223C214.972 42.2223 220.444 36.7502 220.444 30C220.444 26.4544 218.935 23.2614 216.523 21.0289C215.578 20.1539 215.302 18.6775 216.106 17.6711C216.796 16.8063 218.043 16.5998 218.89 17.3128C222.512 20.3632 224.813 24.9317 224.813 30.0376C224.813 39.2215 217.368 46.6665 208.184 46.6665C199.001 46.6665 191.556 39.2215 191.556 30.0376Z" fill="#D2151B"/>
</svg>
