<svg width="24" height="24" viewBox="0 0 24 24" fill="none" xmlns="http://www.w3.org/2000/svg">
<path d="M17.09 10.9996H21.95C21.79 9.38961 21.24 7.88961 20.41 6.59961C18.68 7.42961 17.42 9.04961 17.09 10.9996Z" fill="black" fill-opacity="0.54"/>
<path d="M6.91005 10.9996C6.58005 9.04961 5.32005 7.42961 3.59005 6.59961C2.76005 7.88961 2.21005 9.38961 2.05005 10.9996H6.91005Z" fill="black" fill-opacity="0.54"/>
<path d="M15.07 10.9998C15.39 8.4098 16.95 6.2098 19.13 4.9998C17.53 3.3698 15.39 2.2898 13 2.0498V10.9998H15.07Z" fill="black" fill-opacity="0.54"/>
<path d="M8.93 10.9998H11V2.0498C8.60999 2.2898 6.46 3.3698 4.87 4.9998C7.05 6.2098 8.61 8.4098 8.93 10.9998Z" fill="black" fill-opacity="0.54"/>
<path d="M15.07 13H13V21.95C15.39 21.71 17.54 20.63 19.13 19C16.95 17.79 15.39 15.59 15.07 13Z" fill="black" fill-opacity="0.54"/>
<path d="M3.59005 17.4C5.31005 16.57 6.58005 14.94 6.91005 13H2.05005C2.21005 14.61 2.76005 16.11 3.59005 17.4Z" fill="black" fill-opacity="0.54"/>
<path d="M17.09 13C17.42 14.95 18.68 16.57 20.41 17.4C21.24 16.11 21.79 14.61 21.95 13H17.09Z" fill="black" fill-opacity="0.54"/>
<path d="M8.93 13C8.61 15.59 7.05 17.79 4.87 19C6.47 20.63 8.60999 21.71 11 21.95V13H8.93Z" fill="black" fill-opacity="0.54"/>
</svg>
